<svg id="Layer_1" data-name="Layer 1" xmlns="http://www.w3.org/2000/svg" viewBox="0 0 32 10"><defs><style>.cls-1{font-size:19.23px;font-family:AllianceNo.2-Regular, "Alliance No.2";}.cls-1,.cls-17{fill:#0a0b11;}.cls-2{letter-spacing:-0.02em;}.cls-3{letter-spacing:-0.07em;}.cls-4{letter-spacing:-0.02em;}.cls-5{letter-spacing:-0.03em;}.cls-10,.cls-6,.cls-7,.cls-8,.cls-9{fill:#999;}.cls-11,.cls-6{letter-spacing:-0.02em;}.cls-12,.cls-7{letter-spacing:0em;}.cls-8{letter-spacing:0em;}.cls-10,.cls-18{letter-spacing:0em;}.cls-13{letter-spacing:-0.03em;}.cls-14{letter-spacing:-0.01em;}.cls-15{letter-spacing:-0.02em;}.cls-16{letter-spacing:0em;}</style></defs><text class="cls-1" transform="translate(-44.05 -13.67)">M<tspan class="cls-2" x="17.5" y="0">AK</tspan><tspan x="42.43" y="0">E </tspan><tspan class="cls-2" x="59.31" y="0">A</tspan><tspan x="71.72" y="0">N IM</tspan><tspan class="cls-3" x="114.55" y="0">P</tspan><tspan class="cls-4" x="126.22" y="0">A</tspan><tspan class="cls-5" x="138.67" y="0">C</tspan><tspan x="152.61" y="0">T</tspan><tspan x="0" y="25.64" xml:space="preserve">ON             </tspan><tspan class="cls-6" x="88.31" y="25.64">T</tspan><tspan class="cls-7" x="98.53" y="25.64">HE </tspan><tspan class="cls-8" x="130.84" y="25.64">W</tspan><tspan class="cls-9" x="148.63" y="25.64">ORLD</tspan><tspan x="203.11" y="25.64"> </tspan><tspan class="cls-10" x="207.59" y="25.64">/</tspan><tspan class="cls-9"><tspan class="cls-11" x="0" y="51.29">T</tspan><tspan class="cls-12" x="10.21" y="51.29">HE </tspan><tspan class="cls-11" x="42.52" y="51.29">T</tspan><tspan class="cls-13" x="52.74" y="51.29">E</tspan><tspan x="64.64" y="51.29">CHNI</tspan><tspan class="cls-14" x="115.36" y="51.29">C</tspan><tspan class="cls-15" x="129.51" y="51.29">A</tspan><tspan x="141.92" y="51.29">L </tspan><tspan class="cls-16" x="157.38" y="51.29">C</tspan><tspan x="171.86" y="51.29">OMMUNITY</tspan><tspan class="cls-17" x="280.58" y="51.29"> </tspan><tspan x="285.06" y="51.29">/</tspan><tspan class="cls-3" x="0" y="76.93">P</tspan><tspan class="cls-15" x="11.67" y="76.93">A</tspan><tspan class="cls-18" x="24.08" y="76.93">L</tspan><tspan class="cls-15" x="35.06" y="76.93">A</tspan><tspan class="cls-12" x="47.47" y="76.93">N</tspan><tspan class="cls-11" x="62.68" y="76.93">T</tspan><tspan class="cls-18" x="72.89" y="76.93">IR</tspan><tspan class="cls-17" x="92.82" y="76.93"> </tspan><tspan x="97.3" y="76.93">/</tspan></tspan></text><path d="M.4,4.45H29.79L26.66.16H28L31.6,5,28,9.84H26.66l3.13-4.29H.4Z"/></svg>